<svg width="14" height="13" viewBox="0 0 14 13" fill="none" xmlns="http://www.w3.org/2000/svg">
<path d="M5.00016 0.333344L3.78016 1.66668H1.66683C0.933496 1.66668 0.333496 2.26668 0.333496 3.00001V11C0.333496 11.7333 0.933496 12.3333 1.66683 12.3333H12.3335C13.0668 12.3333 13.6668 11.7333 13.6668 11V3.00001C13.6668 2.26668 13.0668 1.66668 12.3335 1.66668H10.2202L9.00016 0.333344H5.00016ZM7.00016 10.3333C5.16016 10.3333 3.66683 8.84001 3.66683 7.00001C3.66683 5.16001 5.16016 3.66668 7.00016 3.66668C8.84016 3.66668 10.3335 5.16001 10.3335 7.00001C10.3335 8.84001 8.84016 10.3333 7.00016 10.3333Z" fill="white"/>
</svg>
