<svg width="0" height="0" class="hidden">
    <symbol viewBox="0 0 24 24" xmlns="http://www.w3.org/2000/svg" id="alert-icon">
        <path d="M11 15h2v2h-2v-2zm0-8h2v6h-2V7zm.99-5C6.47 2 2 6.48 2 12s4.47 10 9.99 10C17.52 22 22 17.52 22 12S17.52 2 11.99 2zM12 20c-4.42 0-8-3.58-8-8s3.58-8 8-8 8 3.58 8 8-3.58 8-8 8z"></path>
    </symbol>
    <symbol viewBox="0 0 14 14" xmlns="http://www.w3.org/2000/svg" id="close-icon">
        <path d="M14 1.41L12.59 0 7 5.59 1.41 0 0 1.41 5.59 7 0 12.59 1.41 14 7 8.41 12.59 14 14 12.59 8.41 7 14 1.41z"></path>
    </symbol>
    <symbol viewBox="0 0 18 18" xmlns="http://www.w3.org/2000/svg" id="check-icon">
        <path d="M16 0H2C.9 0 0 .9 0 2v14c0 1.1.9 2 2 2h14c1.1 0 2-.9 2-2V2c0-1.1-.9-2-2-2zm0 16H2V2h14v14zM14.99 6l-1.41-1.42-6.59 6.59L4.41 8.6l-1.42 1.41 4 3.99 8-8z"></path>
    </symbol>
    <symbol viewBox="0 0 14 15" xmlns="http://www.w3.org/2000/svg" id="letter-icon">
        <path d="M0 13v2h14v-2H0zm4.5-4.2h5l.9 2.2h2.1L7.75 0h-1.5L1.5 11h2.1l.9-2.2zM7 1.98L8.87 7H5.13L7 1.98z"></path>
    </symbol>
    <symbol viewBox="0 0 20 20" xmlns="http://www.w3.org/2000/svg" id="radio-icon">
        <path d="M10 5c-2.76 0-5 2.24-5 5s2.24 5 5 5 5-2.24 5-5-2.24-5-5-5zm0-5C4.48 0 0 4.48 0 10s4.48 10 10 10 10-4.48 10-10S15.52 0 10 0zm0 18c-4.42 0-8-3.58-8-8s3.58-8 8-8 8 3.58 8 8-3.58 8-8 8z"></path>
    </symbol>
    <symbol viewBox="0 0 20 19" xmlns="http://www.w3.org/2000/svg" id="star-icon">
        <path d="M20 7.24l-7.19-.62L10 0 7.19 6.63 0 7.24l5.46 4.73L3.82 19 10 15.27 16.18 19l-1.63-7.03L20 7.24zM10 13.4V4.1l1.71 4.04 4.38.38-3.32 2.88 1 4.28L10 13.4z"></path>
    </symbol>
    <symbol viewBox="0 0 24 24" xmlns="http://www.w3.org/2000/svg" id="thumb-icon">
        <path d="M9 21h9c.83 0 1.54-.5 1.84-1.22l3.02-7.05c.09-.23.14-.47.14-.73v-2c0-1.1-.9-2-2-2h-6.31l.95-4.57.03-.32c0-.41-.17-.79-.44-1.06L14.17 1 7.58 7.59C7.22 7.95 7 8.45 7 9v10c0 1.1.9 2 2 2zM9 9l4.34-4.34L12 10h9v2l-3 7H9V9zM1 9h4v12H1V9z"></path>
    </symbol>
    <symbol viewBox="0 0 8 10" xmlns="http://www.w3.org/2000/svg" id="trash-icon">
        <path d="M1 8.5c0 .55.45 1 1 1h4c.55 0 1-.45 1-1v-6H1v6zM7.5 1H5.75l-.5-.5h-2.5l-.5.5H.5v1h7V1z"></path>
    </symbol>
    <symbol viewBox="0 0 18 20" xmlns="http://www.w3.org/2000/svg" id="calendar-icon">
        <path d="M6 9H4v2h2V9zm4 0H8v2h2V9zm4 0h-2v2h2V9zm2-7h-1V0h-2v2H5V0H3v2H2C.89 2 .01 2.9.01 4L0 18a2 2 0 0 0 2 2h14c1.1 0 2-.9 2-2V4c0-1.1-.9-2-2-2zm0 16H2V7h14v11z"></path>
    </symbol>
    <symbol viewBox="0 0 20 20" xmlns="http://www.w3.org/2000/svg" id="time-icon">
        <path d="M9.99 0C4.47 0 0 4.48 0 10s4.47 10 9.99 10C15.52 20 20 15.52 20 10S15.52 0 9.99 0zM10 18c-4.42 0-8-3.58-8-8s3.58-8 8-8 8 3.58 8 8-3.58 8-8 8z"></path>
        <path d="M10.5 5H9v6l5.25 3.15.75-1.23-4.5-2.67V5z"></path>
    </symbol>
    <symbol viewBox="0 0 20 10" xmlns="http://www.w3.org/2000/svg" id="link-icon">
        <path d="M1.9 5c0-1.71 1.39-3.1 3.1-3.1h4V0H5C2.24 0 0 2.24 0 5s2.24 5 5 5h4V8.1H5C3.29 8.1 1.9 6.71 1.9 5zM6 6h8V4H6v2zm9-6h-4v1.9h4c1.71 0 3.1 1.39 3.1 3.1 0 1.71-1.39 3.1-3.1 3.1h-4V10h4c2.76 0 5-2.24 5-5s-2.24-5-5-5z"></path>
    </symbol>
    <symbol viewBox="0 0 18 18" xmlns="http://www.w3.org/2000/svg" id="zoom-icon">
        <path d="M12.5 11h-.79l-.28-.27A6.471 6.471 0 0 0 13 6.5 6.5 6.5 0 1 0 6.5 13c1.61 0 3.09-.59 4.23-1.57l.27.28v.79l5 4.99L17.49 16l-4.99-5zm-6 0C4.01 11 2 8.99 2 6.5S4.01 2 6.5 2 11 4.01 11 6.5 8.99 11 6.5 11z"></path>
        <path d="M9 7H7v2H6V7H4V6h2V4h1v2h2v1z"></path>
    </symbol>
    <symbol viewBox="0 0 12 12" xmlns="http://www.w3.org/2000/svg" id="archive-icon">
        <path d="M11.693 1.487l-.926-1.12A.968.968 0 0 0 10 0H2a.99.99 0 0 0-.773.367l-.92 1.12A1.305 1.305 0 0 0 0 2.333v8.334C0 11.4.6 12 1.333 12h9.334C11.4 12 12 11.4 12 10.667V2.333c0-.32-.113-.62-.307-.846zM6 9.667L2.333 6h2.334V4.667h2.666V6h2.334L6 9.667zM1.413 1.333l.54-.666h8l.627.666H1.413z"></path>
    </symbol>
    <symbol viewBox="0 0 13 13" xmlns="http://www.w3.org/2000/svg" id="edit-icon">
        <path d="M0 10.5V13h2.5l7.373-7.373-2.5-2.5L0 10.5zm11.807-6.806c.26-.26.26-.68 0-.94l-1.56-1.56a.664.664 0 0 0-.94 0l-1.22 1.22 2.5 2.5 1.22-1.22z"></path>
    </symbol>
    <symbol viewBox="0 0 16 16" xmlns="http://www.w3.org/2000/svg" id="publish-icon">
        <g clip-path="url(#clip0)">
            <path d="M5.833 11.741v3.092a.5.5 0 0 0 .903.296l1.809-2.461-2.712-.927zM15.79.093a.5.5 0 0 0-.521-.036l-15 7.833a.501.501 0 0 0 .069.917l4.17 1.425 8.88-7.593-6.871 8.28 6.988 2.388a.51.51 0 0 0 .422-.046.502.502 0 0 0 .234-.354L15.995.574a.5.5 0 0 0-.205-.481z"></path>
        </g>
        <defs>
            <clipPath id="clip0">
                <path d="M0 0h16v16H0z"></path>
            </clipPath>
        </defs>
    </symbol>
    <symbol viewBox="0 0 18 18" xmlns="http://www.w3.org/2000/svg" id="exit-icon">
        <path d="M7.09 12.59L8.5 14l5-5-5-5-1.41 1.41L9.67 8H0v2h9.67l-2.58 2.59zM16 0H2a2 2 0 0 0-2 2v4h2V2h14v14H2v-4H0v4a2 2 0 0 0 2 2h14c1.1 0 2-.9 2-2V2c0-1.1-.9-2-2-2z" ></path>
    </symbol>
    <symbol viewBox="0 0 24 24" xmlns="http://www.w3.org/2000/svg" id="list-icon">
        <path d="M21.333 0H2.667A2.675 2.675 0 0 0 0 2.667v18.666C0 22.8 1.2 24 2.667 24h18.666C22.8 24 24 22.8 24 21.333V2.667C24 1.2 22.8 0 21.333 0zM8 18.667H5.333V9.333H8v9.334zm5.333 0h-2.666V5.333h2.666v13.334zm5.334 0H16v-5.334h2.667v5.334z" ></path>
    </symbol>
    <symbol viewBox="0 0 28 28" xmlns="http://www.w3.org/2000/svg" id="question-icon">
        <path d="M14 .667C6.64.667.667 6.64.667 14S6.64 27.333 14 27.333 27.333 21.36 27.333 14 21.36.667 14 .667zm1.333 22.666h-2.667v-2.666h2.667v2.666zM18.093 13l-1.2 1.227c-.96.973-1.56 1.773-1.56 3.773h-2.667v-.667c0-1.466.6-2.8 1.56-3.773l1.654-1.68c.493-.48.786-1.147.786-1.88 0-1.467-1.2-2.667-2.666-2.667A2.674 2.674 0 0 0 11.333 10H8.666A5.332 5.332 0 0 1 14 4.667 5.332 5.332 0 0 1 19.333 10c0 1.173-.48 2.24-1.24 3z"
              ></path>
    </symbol>
    <symbol viewBox="0 0 26 28" xmlns="http://www.w3.org/2000/svg" id="settings-icon">
        <path d="M22.907 15.307C22.96 14.88 23 14.453 23 14c0-.453-.04-.88-.093-1.307l2.813-2.2c.253-.2.32-.56.16-.853l-2.667-4.613a.67.67 0 0 0-.813-.294l-3.32 1.334a9.74 9.74 0 0 0-2.253-1.307l-.507-3.533a.65.65 0 0 0-.654-.56h-5.333a.65.65 0 0 0-.653.56L9.173 4.76A10.23 10.23 0 0 0 6.92 6.067L3.6 4.733a.65.65 0 0 0-.814.294L.12 9.64a.657.657 0 0 0 .16.853l2.813 2.2A10.65 10.65 0 0 0 3 14c0 .44.04.88.093 1.307l-2.813 2.2c-.254.2-.32.56-.16.853l2.666 4.613c.16.294.52.4.814.294l3.32-1.334c.693.534 1.44.974 2.253 1.307l.507 3.533c.04.32.32.56.653.56h5.333a.65.65 0 0 0 .654-.56l.506-3.533c.814-.333 1.56-.787 2.254-1.307l3.32 1.334a.65.65 0 0 0 .813-.294l2.667-4.613a.673.673 0 0 0-.16-.853l-2.813-2.2zM13 18.667A4.672 4.672 0 0 1 8.333 14 4.672 4.672 0 0 1 13 9.333 4.672 4.672 0 0 1 17.666 14 4.672 4.672 0 0 1 13 18.667z"
              ></path>
    </symbol>
    <symbol viewBox="0 0 12 12" xmlns="http://www.w3.org/2000/svg" id="arrow-icon">
        <path d="M6 0L4.94 1.06l4.19 4.19H0v1.5h9.13l-4.19 4.19L6 12l6-6-6-6z" ></path>
    </symbol>
    <symbol viewBox="0 0 12 8"  xmlns="http://www.w3.org/2000/svg" id="small-arrow">
        <path d="M1.415 7.79L6 3.205l4.585 4.585L12 6.375l-6-6-6 6L1.415 7.79z" ></path>
    </symbol>
    <symbol viewBox="0 0 16 14" xmlns="http://www.w3.org/2000/svg" id="right-icon">
        <path d="M.667 14h2.666V6H.667v8zm14.666-7.333c0-.733-.6-1.333-1.333-1.333H9.793l.634-3.047.02-.213c0-.274-.114-.527-.294-.707l-.706-.7L5.06 5.06c-.247.24-.393.574-.393.94v6.667C4.667 13.4 5.267 14 6 14h6c.553 0 1.027-.333 1.227-.813l2.013-4.7c.06-.153.093-.313.093-.487V6.727l-.006-.007.006-.053z"
              ></path>
    </symbol>
    <symbol viewBox="0 0 16 14" xmlns="http://www.w3.org/2000/svg" id="unright-icon">
        <path d="M10 0H4a1.33 1.33 0 0 0-1.227.813l-2.01 4.7C.703 5.667.667 5.83.667 6v1.277l.006.006-.006.05c0 .737.596 1.334 1.333 1.334h4.21l-.637 3.046a.998.998 0 0 0 .27.917l.71.703 4.39-4.39c.24-.243.39-.576.39-.943V1.333C11.333.597 10.737 0 10 0zm2.667 0v8h2.666V0h-2.666z"
              ></path>
    </symbol>
    <symbol viewBox="0 0 12 8"  xmlns="http://www.w3.org/2000/svg" id="down-up-arrow">
        <path d="M0 1.607l6 6 4.667-4.667V6H12V.667H6.667V2h3.06L6 5.727.94.667l-.94.94z" ></path>
    </symbol>
    <symbol  viewBox="0 0 24 24" fill="none" xmlns="http://www.w3.org/2000/svg" id="remove-account">
        <path d="M20.47 7.49996L21.2 6.76996C21.3949 6.57502 21.5044 6.31063 21.5044 6.03496C21.5044 5.75928 21.3949 5.49489 21.2 5.29996C21.005 5.10502 20.7406 4.99551 20.465 4.99551C20.1893 4.99551 19.9249 5.10502 19.73 5.29996L19 5.99996L18.27 5.26996C18.0711 5.07502 17.8029 4.96709 17.5244 4.9699C17.2459 4.97272 16.9799 5.08604 16.785 5.28496C16.59 5.48387 16.4821 5.75207 16.4849 6.03056C16.4877 6.30905 16.6011 6.57502 16.8 6.76996L17.53 7.49996L16.8 8.22996C16.605 8.42489 16.4955 8.68928 16.4955 8.96496C16.4955 9.24063 16.605 9.50502 16.8 9.69996C16.9949 9.89489 17.2593 10.0044 17.535 10.0044C17.8106 10.0044 18.075 9.89489 18.27 9.69996L19 8.99996L19.73 9.72996C19.9289 9.92489 20.1971 10.0328 20.4756 10.03C20.7541 10.0272 21.02 9.91387 21.215 9.71496C21.4099 9.51604 21.5178 9.24784 21.515 8.96935C21.5122 8.69086 21.3989 8.42489 21.2 8.22996L20.47 7.49996Z" fill="#FB4A56"/>
        <path d="M10 11C10.7911 11 11.5645 10.7654 12.2223 10.3259C12.8801 9.88635 13.3928 9.26164 13.6955 8.53074C13.9983 7.79983 14.0775 6.99556 13.9231 6.21964C13.7688 5.44372 13.3878 4.73098 12.8284 4.17157C12.269 3.61216 11.5563 3.2312 10.7804 3.07686C10.0044 2.92252 9.20017 3.00173 8.46927 3.30448C7.73836 3.60723 7.11365 4.11992 6.67412 4.77772C6.2346 5.43552 6 6.20888 6 7C6 8.06087 6.42143 9.07828 7.17157 9.82843C7.92172 10.5786 8.93913 11 10 11Z" fill="#FB4A56"/>
        <path d="M16 21C16.2652 21 16.5196 20.8946 16.7071 20.7071C16.8946 20.5196 17 20.2652 17 20C17 18.1435 16.2625 16.363 14.9497 15.0503C13.637 13.7375 11.8565 13 10 13C8.14348 13 6.36301 13.7375 5.05025 15.0503C3.7375 16.363 3 18.1435 3 20C3 20.2652 3.10536 20.5196 3.29289 20.7071C3.48043 20.8946 3.73478 21 4 21H16Z" fill="#FB4A56"/>
    </symbol>
    <symbol viewBox="0 0 20 21" fill="none" xmlns="http://www.w3.org/2000/svg" id="cover-trash-icon">
        <path d="M19 4.99991H14V3.32991C13.9765 2.68973 13.7002 2.08497 13.2316 1.64821C12.7629 1.21144 12.1402 0.978307 11.5 0.999914H8.5C7.85975 0.978307 7.23706 1.21144 6.76843 1.64821C6.2998 2.08497 6.02346 2.68973 6 3.32991V4.99991H1C0.734784 4.99991 0.48043 5.10527 0.292893 5.29281C0.105357 5.48034 0 5.7347 0 5.99991C0 6.26513 0.105357 6.51948 0.292893 6.70702C0.48043 6.89456 0.734784 6.99991 1 6.99991H2V17.9999C2 18.7956 2.31607 19.5586 2.87868 20.1212C3.44129 20.6838 4.20435 20.9999 5 20.9999H15C15.7956 20.9999 16.5587 20.6838 17.1213 20.1212C17.6839 19.5586 18 18.7956 18 17.9999V6.99991H19C19.2652 6.99991 19.5196 6.89456 19.7071 6.70702C19.8946 6.51948 20 6.26513 20 5.99991C20 5.7347 19.8946 5.48034 19.7071 5.29281C19.5196 5.10527 19.2652 4.99991 19 4.99991ZM8 14.9999C8 15.2651 7.89464 15.5195 7.70711 15.707C7.51957 15.8946 7.26522 15.9999 7 15.9999C6.73478 15.9999 6.48043 15.8946 6.29289 15.707C6.10536 15.5195 6 15.2651 6 14.9999V10.9999C6 10.7347 6.10536 10.4803 6.29289 10.2928C6.48043 10.1053 6.73478 9.99991 7 9.99991C7.26522 9.99991 7.51957 10.1053 7.70711 10.2928C7.89464 10.4803 8 10.7347 8 10.9999V14.9999ZM8 3.32991C8 3.16991 8.21 2.99991 8.5 2.99991H11.5C11.79 2.99991 12 3.16991 12 3.32991V4.99991H8V3.32991ZM14 14.9999C14 15.2651 13.8946 15.5195 13.7071 15.707C13.5196 15.8946 13.2652 15.9999 13 15.9999C12.7348 15.9999 12.4804 15.8946 12.2929 15.707C12.1054 15.5195 12 15.2651 12 14.9999V10.9999C12 10.7347 12.1054 10.4803 12.2929 10.2928C12.4804 10.1053 12.7348 9.99991 13 9.99991C13.2652 9.99991 13.5196 10.1053 13.7071 10.2928C13.8946 10.4803 14 10.7347 14 10.9999V14.9999Z" fill="#FB4A56"/>
    </symbol>

</svg>
