<svg width="32" height="32" viewBox="0 0 32 32" fill="none" xmlns="http://www.w3.org/2000/svg">
<g id="Twitter">
<g id="Twitter_2">
<rect id="Rectangle" width="32" height="32" rx="16" fill="#1DA1F2"/>
<path id="Path" d="M23.8415 12.5417C23.8415 12.7167 23.8415 12.8917 23.8415 13.0417C23.8415 18.2167 19.8915 24.1917 12.6915 24.1917C10.4665 24.1917 8.4165 23.5417 6.6665 22.4417C6.9665 22.4667 7.2915 22.4917 7.5915 22.4917C9.4165 22.4917 11.1165 21.8667 12.4665 20.8167C10.7415 20.7917 9.2915 19.6417 8.8165 18.0917C9.0665 18.1417 9.2915 18.1667 9.5665 18.1667C9.9165 18.1667 10.2665 18.1167 10.5915 18.0167C8.7915 17.6667 7.4415 16.0917 7.4415 14.1917C7.4415 14.1667 7.4415 14.1667 7.4415 14.1417C7.9665 14.4417 8.5665 14.6167 9.2165 14.6417C8.1665 13.9417 7.4665 12.7417 7.4665 11.3667C7.4665 10.6417 7.6665 9.96675 7.9915 9.39175C9.9165 11.7667 12.8165 13.3167 16.0665 13.4917C15.9915 13.2167 15.9665 12.8917 15.9665 12.5917C15.9665 10.4167 17.7165 8.66675 19.8915 8.66675C21.0165 8.66675 22.0415 9.14175 22.7415 9.89175C23.6415 9.71675 24.4665 9.39175 25.2415 8.94175C24.9415 9.86675 24.3165 10.6167 23.5165 11.1167C24.3165 11.0167 25.0665 10.8167 25.7665 10.4917C25.2665 11.2917 24.6165 11.9917 23.8415 12.5417Z" fill="white"/>
</g>
</g>
</svg>
