<svg width="32" height="32" viewBox="0 0 32 32" fill="none" xmlns="http://www.w3.org/2000/svg">
<g id="Vkontakte (VK)">
<g id="Vkontakte (VK)_2">
<rect id="Rectangle" width="32" height="32" rx="16" fill="#5181B8"/>
<path id="Vector" fill-rule="evenodd" clip-rule="evenodd" d="M26.1774 11.0232C26.3257 10.5287 26.1774 10.1653 25.4715 10.1653H23.1377C22.5442 10.1653 22.2708 10.4792 22.1224 10.8254C22.1224 10.8254 20.9355 13.7183 19.2541 15.5974C18.7101 16.1413 18.4629 16.3142 18.1662 16.3142C18.0178 16.3142 17.8031 16.1413 17.8031 15.6469V11.0232C17.8031 10.4297 17.6309 10.1653 17.1363 10.1653H13.4687C13.098 10.1653 12.8749 10.4407 12.8749 10.7017C12.8749 11.2644 13.7155 11.3941 13.8021 12.9764V16.4134C13.8021 17.1669 13.6661 17.3036 13.3694 17.3036C12.5782 17.3036 10.6537 14.3976 9.51214 11.0727C9.28842 10.4263 9.06403 10.1653 8.46756 10.1653H6.13368C5.46686 10.1653 5.3335 10.4792 5.3335 10.8254C5.3335 11.4436 6.12485 14.5096 9.01769 18.5646C10.9465 21.3336 13.6634 22.8349 16.136 22.8349C17.6197 22.8349 17.8031 22.5015 17.8031 21.9272V19.8342C17.8031 19.1674 17.9436 19.0344 18.4132 19.0344C18.7596 19.0344 19.3529 19.2074 20.7378 20.5425C22.3201 22.1247 22.5809 22.8349 23.4711 22.8349H25.8049C26.4718 22.8349 26.8052 22.5015 26.6128 21.8435C26.4024 21.1877 25.6469 20.2365 24.6443 19.1085C24.1004 18.4656 23.2844 17.7732 23.0373 17.4271C22.691 16.982 22.7899 16.7843 23.0373 16.3889C23.0373 16.3889 25.8806 12.3833 26.1774 11.0233V11.0232Z" fill="white"/>
</g>
</g>
</svg>
