<svg width="28" height="28" viewBox="0 0 28 28" fill="none" xmlns="http://www.w3.org/2000/svg">
<path d="M13.9998 0.666687C6.63984 0.666687 0.666504 6.64002 0.666504 14C0.666504 21.36 6.63984 27.3334 13.9998 27.3334C21.3598 27.3334 27.3332 21.36 27.3332 14C27.3332 6.64002 21.3598 0.666687 13.9998 0.666687ZM15.3332 23.3334H12.6665V20.6667H15.3332V23.3334ZM18.0932 13L16.8932 14.2267C15.9332 15.2 15.3332 16 15.3332 18H12.6665V17.3334C12.6665 15.8667 13.2665 14.5334 14.2265 13.56L15.8798 11.88C16.3732 11.4 16.6665 10.7334 16.6665 10C16.6665 8.53335 15.4665 7.33335 13.9998 7.33335C12.5332 7.33335 11.3332 8.53335 11.3332 10H8.6665C8.6665 7.05335 11.0532 4.66669 13.9998 4.66669C16.9465 4.66669 19.3332 7.05335 19.3332 10C19.3332 11.1734 18.8532 12.24 18.0932 13Z" fill="#CAD2E2"/>
</svg>
