<svg width="16" height="14" viewBox="0 0 16 14" fill="none" xmlns="http://www.w3.org/2000/svg">
<path d="M0.666748 14.0003H3.33341V6.00033H0.666748V14.0003ZM15.3334 6.66699C15.3334 5.93366 14.7334 5.33366 14.0001 5.33366H9.79341L10.4267 2.28699L10.4467 2.07366C10.4467 1.80033 10.3334 1.54699 10.1534 1.36699L9.44675 0.666992L5.06008 5.06033C4.81341 5.30033 4.66675 5.63366 4.66675 6.00033V12.667C4.66675 13.4003 5.26675 14.0003 6.00008 14.0003H12.0001C12.5534 14.0003 13.0267 13.667 13.2267 13.187L15.2401 8.48699C15.3001 8.33366 15.3334 8.17366 15.3334 8.00033V6.72699L15.3267 6.72032L15.3334 6.66699Z" fill="#1B9B8F"/>
</svg>
