<svg width="26" height="28" viewBox="0 0 26 28" fill="none" xmlns="http://www.w3.org/2000/svg">
<path d="M22.9065 15.3067C22.9598 14.88 22.9998 14.4533 22.9998 14C22.9998 13.5467 22.9598 13.12 22.9065 12.6933L25.7198 10.4933C25.9731 10.2933 26.0398 9.93332 25.8798 9.63999L23.2131 5.02666C23.0531 4.73332 22.6931 4.62666 22.3998 4.73332L19.0798 6.06666C18.3865 5.53332 17.6398 5.09332 16.8265 4.75999L16.3198 1.22666C16.2798 0.906657 15.9998 0.666656 15.6665 0.666656H10.3331C9.99979 0.666656 9.71979 0.906657 9.67979 1.22666L9.17312 4.75999C8.35979 5.09332 7.61312 5.54666 6.91979 6.06666L3.59979 4.73332C3.29312 4.61332 2.94645 4.73332 2.78645 5.02666L0.119786 9.63999C-0.0535475 9.93332 0.0264527 10.2933 0.279786 10.4933L3.09312 12.6933C3.03979 13.12 2.99979 13.56 2.99979 14C2.99979 14.44 3.03979 14.88 3.09312 15.3067L0.279786 17.5067C0.0264527 17.7067 -0.0402142 18.0667 0.119786 18.36L2.78645 22.9733C2.94645 23.2667 3.30645 23.3733 3.59979 23.2667L6.91979 21.9333C7.61312 22.4667 8.35979 22.9067 9.17312 23.24L9.67979 26.7733C9.71979 27.0933 9.99979 27.3333 10.3331 27.3333H15.6665C15.9998 27.3333 16.2798 27.0933 16.3198 26.7733L16.8265 23.24C17.6398 22.9067 18.3865 22.4533 19.0798 21.9333L22.3998 23.2667C22.7065 23.3867 23.0531 23.2667 23.2131 22.9733L25.8798 18.36C26.0398 18.0667 25.9731 17.7067 25.7198 17.5067L22.9065 15.3067ZM12.9998 18.6667C10.4265 18.6667 8.33312 16.5733 8.33312 14C8.33312 11.4267 10.4265 9.33332 12.9998 9.33332C15.5731 9.33332 17.6665 11.4267 17.6665 14C17.6665 16.5733 15.5731 18.6667 12.9998 18.6667Z" fill="#CAD2E2"/>
</svg>
