<svg width="16" height="14" viewBox="0 0 16 14" fill="none" xmlns="http://www.w3.org/2000/svg">
<path d="M10.0001 0H4.00008C3.44675 0 2.97341 0.336667 2.77341 0.813333L0.763415 5.51333C0.703415 5.66667 0.666748 5.83 0.666748 6V7.27667L0.673415 7.28333L0.666748 7.33333C0.666748 8.07 1.26341 8.66667 2.00008 8.66667H6.21008L5.57341 11.7133C5.56008 11.78 5.55008 11.85 5.55008 11.9233C5.55008 12.2 5.66341 12.45 5.84341 12.63L6.55341 13.3333L10.9434 8.94333C11.1834 8.7 11.3334 8.36667 11.3334 8V1.33333C11.3334 0.596667 10.7367 0 10.0001 0ZM12.6667 0V8H15.3334V0H12.6667Z" fill="#FB4A56"/>
</svg>
